<svg width="24" height="24" viewBox="0 0 24 24" fill="none" xmlns="http://www.w3.org/2000/svg">
<path d="M17.707 13.121C17.5195 12.9335 17.2652 12.8282 17 12.8282C16.7349 12.8282 16.4805 12.9335 16.293 13.121L13 16.413L12.993 6C12.993 5.73478 12.8877 5.48043 12.7001 5.29289C12.5126 5.10536 12.2582 5 11.993 5C11.7278 5 11.4734 5.10536 11.2859 5.29289C11.0984 5.48043 10.993 5.73478 10.993 6L11 16.414L7.70702 13.121C7.61477 13.0255 7.50443 12.9493 7.38242 12.8969C7.26042 12.8445 7.1292 12.8169 6.99642 12.8157C6.86364 12.8146 6.73196 12.8399 6.60907 12.8902C6.48617 12.9405 6.37452 13.0147 6.28062 13.1086C6.18673 13.2025 6.11248 13.3141 6.0622 13.437C6.01192 13.5599 5.98662 13.6916 5.98777 13.8244C5.98892 13.9572 6.01651 14.0884 6.06892 14.2104C6.12133 14.3324 6.19751 14.4428 6.29302 14.535L9.87802 18.121C10.1566 18.3996 10.4873 18.6207 10.8514 18.7715C11.2154 18.9222 11.6055 18.9999 11.9995 18.9999C12.3935 18.9999 12.7837 18.9222 13.1477 18.7715C13.5117 18.6207 13.8424 18.3996 14.121 18.121L17.707 14.535C17.8945 14.3475 17.9998 14.0932 17.9998 13.828C17.9998 13.5628 17.8945 13.3085 17.707 13.121Z" fill="white"/>
</svg>
